<?xml version="1.0" encoding="UTF-8" standalone="no"?>
<!-- Created with Inkscape (http://www.inkscape.org/) -->

<svg
   xmlns:dc="http://purl.org/dc/elements/1.1/"
   xmlns:cc="http://creativecommons.org/ns#"
   xmlns:rdf="http://www.w3.org/1999/02/22-rdf-syntax-ns#"
   xmlns:svg="http://www.w3.org/2000/svg"
   xmlns="http://www.w3.org/2000/svg"
   xmlns:sodipodi="http://sodipodi.sourceforge.net/DTD/sodipodi-0.dtd"
   xmlns:inkscape="http://www.inkscape.org/namespaces/inkscape"
   width="1744.0945"
   height="452.36221"
   viewBox="0 0 1744.0945 452.36222"
   id="svg2"
   version="1.1"
   inkscape:version="0.91 r13725"
   sodipodi:docname="parallax_01.svg">
  <defs
     id="defs4" />
  <sodipodi:namedview
     id="base"
     pagecolor="#ffffff"
     bordercolor="#666666"
     borderopacity="1.0"
     inkscape:pageopacity="0.0"
     inkscape:pageshadow="2"
     inkscape:zoom="0.7"
     inkscape:cx="611.18796"
     inkscape:cy="108.24273"
     inkscape:document-units="px"
     inkscape:current-layer="layer1"
     showgrid="false"
     units="px"
     showguides="true"
     inkscape:guide-bbox="true"
     inkscape:snap-global="false"
     inkscape:window-width="1920"
     inkscape:window-height="1025"
     inkscape:window-x="1920"
     inkscape:window-y="0"
     inkscape:window-maximized="1">
    <sodipodi:guide
       position="937.42157,84.852815"
       orientation="0,1"
       id="guide4139" />
    <sodipodi:guide
       position="1652.1429,0"
       orientation="0,1"
       id="guide4141"
       inkscape:label=""
       inkscape:color="rgb(0,0,255)" />
    <sodipodi:guide
       position="1745.7143,93.57143"
       orientation="1,0"
       id="guide4143" />
  </sodipodi:namedview>
  <metadata
     id="metadata7">
    <rdf:RDF>
      <cc:Work
         rdf:about="">
        <dc:format>image/svg+xml</dc:format>
        <dc:type
           rdf:resource="http://purl.org/dc/dcmitype/StillImage" />
        <dc:title></dc:title>
      </cc:Work>
    </rdf:RDF>
  </metadata>
  <g
     inkscape:label="Capa 1"
     inkscape:groupmode="layer"
     id="layer1"
     transform="translate(0,-599.99995)">
    <path
       style="fill:#c8ab37;fill-rule:evenodd;stroke:none;stroke-width:1px;stroke-linecap:butt;stroke-linejoin:miter;stroke-opacity:1"
       d="M -2.6533438,972.81947 C 40.216983,965.41768 50.919107,922.0674 92.384948,920.93359 c 31.317362,10.63367 51.013992,5.32353 70.472192,-20 32.99262,-21.38633 34.80793,-52.95562 60,-71.42857 23.42292,1.88573 49.95714,-3.73989 71.42857,2.85714 21.06934,21.41416 0.67909,60.00146 31.61463,77.32891 40.99237,8.59052 59.05464,51.66896 101.08512,51.24252 57.65137,-1.19155 117.90424,2.56902 173.62626,-2.24505 36.72817,-2.07141 31.26716,-47.31329 63.5166,-49.18352 26.80146,-0.86952 56.76652,-7.98705 78.70749,-8.59718 32.06644,-26.96238 73.91508,-21.56768 103.06453,-51.58887 14.08522,-25.21242 17.69932,-18.50596 46.24252,-54.81395 5.79887,-21.07446 16.13785,-63.65267 48.04319,-79.47177 11.97147,-28.34729 39.63636,-55.28627 68.38535,-68.38537 9.7114,-7.78219 21.7531,-12.91319 33.4383,-22.25004 42.5584,23.40377 48.0358,36.19798 75.1332,56.53575 31.3076,4.04208 46.6741,27.0823 62.8576,50.21425 3.9756,5.68263 0.8577,28.51365 5.1804,33.92705 4.201,5.26106 15.8261,-6.88025 20.8176,-2.39551 7.192,6.46182 15.4414,11.85072 25.4301,15.39707 34.8354,36.13915 65.3279,71.22507 117.1428,88.57143 25.0528,12.96737 56.8503,4.9694 85.7143,11.42857 33.4429,35.12487 83.5622,21.42266 117.1429,54.28571 22.8326,20.08869 59.0388,4.84385 84.1283,17.14286 30.1076,-7.05032 48.6892,2.08794 77.1851,-1.07143 10.5838,0.86877 30.9814,7.74911 31.9021,18.9857 l 1.0702,85.65721 -1741.7815764,8.1765 c -10.44076,15.4302 -6.5860674,-88.43353 -6.5860674,-88.43353 z"
       id="path4136"
       inkscape:connector-curvature="0"
       sodipodi:nodetypes="ccccccccccccccccsssccccccsccc" />
    <path
       style="fill:#ececec;fill-rule:evenodd;stroke:none;stroke-width:1px;stroke-linecap:butt;stroke-linejoin:miter;stroke-opacity:1"
       d="m 1043.0198,629.16175 c -11.6852,9.33685 -23.7261,14.46781 -33.4375,22.25 -28.74886,13.0991 -56.41512,40.03943 -68.38659,68.38672 -31.90534,15.8191 -42.2441,58.39624 -48.04297,79.4707 -1.71787,2.1852 -3.33587,4.19798 -4.88086,6.08789 0.97328,5.43352 2.47931,10.61595 5.05664,15.36133 6.21772,7.41764 19.40636,41.54366 31.92969,18.1582 4.70911,-19.3851 -7.57246,-48.69398 18.33007,-56.53906 10.40465,17.29223 8.88123,40.71713 17.34571,58.68164 -3.15722,28.80868 46.72231,5.82703 34.44336,-15.11719 3.60405,-13.89209 -8.76563,-46.42178 8.26935,-47.11523 7.0917,18.53942 16.0408,33.26307 15.1426,53.63477 2.3845,13.04978 5.7272,43.1198 18.1484,17.5664 6.8889,-23.56687 9.3102,-45.75033 20.0625,-67.36133 0.8243,-26.14401 34.7635,-35.0583 30.0821,-59.19336 14.5554,-22.56521 27.594,8.63029 28.3418,19.81641 2.6258,-10.10528 11.8591,-36.25724 18.1699,-13.5 6.3598,24.00727 7.7711,49.83386 22.4062,70.89258 10.8103,23.23317 16.9671,-9.54616 17.166,-19.55469 4.5647,-3.4469 9.1893,-6.965 13.5977,-10.68359 -0.2021,-0.16232 -0.3954,-0.34301 -0.5723,-0.56446 -4.3227,-5.4134 -1.206,-28.2451 -5.1816,-33.92773 -16.1835,-23.13195 -31.5498,-46.17081 -62.8574,-50.21289 -27.0974,-20.33777 -32.5744,-33.13334 -75.1328,-56.53711 z"
       id="path4145"
       inkscape:connector-curvature="0" />
    <path
       style="fill:#a0892c;fill-rule:evenodd;stroke:none;stroke-width:1px;stroke-linecap:butt;stroke-linejoin:miter;stroke-opacity:1"
       d="M 1039.9395 348.82617 C 994.78842 348.42897 968.13096 417.10978 925.29883 391.75391 L 800.03906 391.75391 C 745.51645 381.38301 704.70482 452.5829 658.61914 432.1582 L 553.54297 432.1582 C 514.07466 441.9523 469.53396 403.33683 440.42578 440.24023 L 343.42188 440.24023 C 303.01192 445.38683 270.40082 436.89162 242.4375 407.91602 C 224.73284 380.32065 189.06937 395.82473 161.60352 391.75391 C 119.48816 385.29807 92.240455 415.94242 56.568359 424.07812 L -3.2480469 424.07812 C -2.8665877 447.61418 -1.1943864 468.83245 3.9335938 461.25391 L 1745.7148 453.07617 L 1745.0488 399.83398 L 1636.416 399.83398 C 1589.2122 407.20725 1554.0891 385.79859 1510.7383 383.39258 C 1471.6044 394.60062 1419.7691 411.6187 1377.8477 391.75391 C 1337.7518 386.45993 1312.4804 338.85231 1264.459 351.26367 C 1226.5595 371.89087 1176.4674 384.0487 1135.4121 367.50977 C 1115.0803 344.43891 1084.5065 352.56493 1054.584 351.34766 C 1049.4789 349.64751 1044.6103 348.86726 1039.9395 348.82617 z "
       transform="translate(0,599.99995)"
       id="path4152" />
  </g>
</svg>
